<svg width="223" height="145" viewBox="0 0 223 145" fill="none" xmlns="http://www.w3.org/2000/svg">
<path d="M133.75 4.49798L118.425 27.8223C117.365 29.4107 119.403 31.3335 120.871 29.9959L135.951 16.5363C136.359 16.2019 136.93 16.4527 136.93 17.0379V59.0885C136.93 59.6737 136.196 59.9245 135.87 59.5065L90.2195 3.49478C88.7522 1.65559 86.6327 0.652397 84.2687 0.652397H82.6383C78.3993 0.652397 74.894 4.24718 74.894 8.67796V67.8665C74.894 72.2973 78.3993 75.8921 82.7198 75.8921C85.4099 75.8921 87.937 74.4709 89.4044 72.0465L104.73 48.7222C105.79 47.1338 103.752 45.211 102.284 46.5486L87.2033 59.9245C86.7958 60.2589 86.2251 60.0081 86.2251 59.4229V17.4559C86.2251 16.8707 86.9588 16.6199 87.2849 17.0379L132.935 73.0497C134.403 74.8889 136.604 75.8921 138.886 75.8921H140.517C144.837 75.8921 148.342 72.2973 148.342 67.8665V8.67796C148.342 4.24718 144.837 0.652397 140.517 0.652397C137.745 0.652397 135.218 2.07359 133.75 4.49798Z" fill="url(#paint0_linear_24_244)"/>
<path d="M28.2222 127.892H16.2382L0.670164 90.3721H10.8062L22.0622 119.38H22.6222L33.7102 90.3721H43.7902L28.2222 127.892ZM64.8969 128.452C52.4649 128.452 44.7369 120.836 44.7369 109.132C44.7369 97.4281 52.4649 89.8121 64.8969 89.8121C77.6089 89.8121 85.2809 97.4281 85.2809 109.132C85.2809 120.836 77.6089 128.452 64.8969 128.452ZM64.8969 120.388C73.1289 120.388 76.3209 117.476 76.3209 109.132C76.3209 100.788 73.1289 97.8761 64.8969 97.8761C56.6649 97.8761 53.6409 100.788 53.6409 109.132C53.6409 117.476 56.6649 120.388 64.8969 120.388ZM109.832 127.892H101.432V97.9321H87.4881V90.3721H123.776V97.9321H109.832V127.892ZM135.188 127.892H126.788V90.3721H135.188V127.892ZM147.985 127.892H139.585V90.3721H148.545L161.985 108.124L167.137 116.02H167.753L167.361 108.46V90.3721H175.761V127.892H166.801L152.969 109.972L148.209 102.916H147.649L147.985 109.804V127.892ZM197.914 128.452C186.434 128.452 179.378 120.836 179.378 109.132C179.378 97.4281 187.33 89.8121 200.21 89.8121C211.97 89.8121 219.418 95.3001 219.418 104.316V104.764H210.066V104.316C210.066 99.9481 207.21 97.8761 199.986 97.8761C191.474 97.8761 188.282 100.788 188.282 109.132C188.282 117.476 191.362 120.388 199.594 120.388C208.218 120.388 210.85 119.044 211.074 114.284H198.362V108.068H219.474V127.892H211.69V119.828H211.242C209.954 124.756 206.034 128.452 197.914 128.452Z" fill="white"/>
<defs>
<linearGradient id="paint0_linear_24_244" x1="111.618" y1="0.652397" x2="111.618" y2="75.8921" gradientUnits="userSpaceOnUse">
<stop stop-color="#002BC1"/>
<stop offset="1" stop-color="#00C2FF"/>
</linearGradient>
</defs>
</svg>
